#!OML:ASF E:/inclinewalkrobotboard/Project1/Captureday1/Session1/subject1.ASF
:FULLY-SPECIFIED
:DEGREES
38
root 0 0 0 1.105804274219936 -3.704798307414822 1.8135964837632437
lowerback 11.910276609253822 0.8626041928759817 -0.028786727601984086
upperback -4.2256852575945105 1.097107407709193 -0.5455112576404895
thorax -11.28913151611584 0.5010872765966669 -0.8073966655611443
lowerneck -5.818217679939691 1.4755710827222237 4.567509842422749
upperneck 18.089052235890314 2.931547657289247 -8.33137547136971
head 6.614217164242861 1.0655824296177168 -3.2221098026873696
rclavicle 1.4360619810392727E-15 -1.2147696131858259E-15
rhumerus 19.412102357281245 14.029928452975758 -48.378535223294634
rradius 71.73947169590839
rwrist 26.666120592255197
rhand -34.618399452910154 -56.26129424174246
rfingers 7.125020000000028
rthumb -7.760378806535659 -86.19274832572361
lclavicle 1.2346542220057714E-15 -1.8940341584005484E-15
lhumerus 20.743204551787862 -12.307773722781617 44.8662625496274
lradius 69.75570915794519
lwrist -22.66693727515127
lhand -44.49027848412603 -69.26109326249274
lfingers 7.12502000000002
lthumb -17.317316594929302 -39.984503224716676
rfemur -24.646532192019723 -2.097291057267347 17.182334910741957
rtibia 53.83966470082718
rfoot -29.095278719357985 -17.029169724474247
rtoes -18.315545723131713
lfemur -26.247418540834236 2.519511450705105 -18.017920999032278
ltibia 54.20014284765955
lfoot -31.06380155847149 -3.447628455101627
ltoes -20.151473860779657
39
root 0 0 0 1.105768429003384 -3.7047049275631165 1.8135994525859136
lowerback 11.910323003682228 0.8625953969131025 -0.02878671278377784
upperback -4.225620077348812 1.097100407831698 -0.5455032502633417
thorax -11.289088095479867 0.5010838711582366 -0.8073844157300335
lowerneck -5.818156289875205 1.4754988893188623 4.5674961486412435
upperneck 18.088970408067944 2.9314419700644168 -8.331388589061186
head 6.614182963733805 1.0655354065107256 -3.2221229104222644
rclavicle 1.4372948086189245E-15 -1.2062548051459152E-15
rhumerus 19.41152957248378 14.02899717928647 -48.37833680963287
rradius 71.73905092604791
rwrist 26.66649321363242
rhand -34.62063538507196 -56.26393940793584
rfingers 7.125020000000028
rthumb -7.762423960856305 -86.19518885599427
lclavicle 1.236538293056382E-15 -1.887858471197557E-15
lhumerus 20.742318165821935 -12.307326555120556 44.868181037970956
lradius 69.75476504550574
lwrist -22.665849175890276
lhand -44.49063153044085 -69.2631925032681
lfingers 7.12502000000002
lthumb -17.317632250498004 -39.98652011095567
rfemur -24.646412927347882 -2.0974444113123942 17.18158414526778
rtibia 53.837981444567745
rfoot -29.09637337097344 -17.030159035497615
rtoes -18.317651416495522
lfemur -26.247542189133842 2.51931036064393 -18.018271178784115
ltibia 54.1990267393114
lfoot -31.06183748542541 -3.4474376729719585
ltoes -20.152103729458254
40
root 0 0 0 1.1054432147012927 -3.7049988824285323 1.8136317348729196
lowerback 11.910291647428826 0.8625615543465206 -0.02873516140193111
upperback -4.225474603163507 1.0970705838674768 -0.5454565355997387
thorax -11.288904839821075 0.5010669395960954 -0.8073513879768787
lowerneck -5.8170681416613945 1.4753646811696954 4.567720117721459
upperneck 18.088424386514312 2.9313035176506546 -8.331961995468053
head 6.613824406295772 1.0654714812339954 -3.2223566201726053
rclavicle 1.4566661342188531E-15 -1.2137385165128476E-15
rhumerus 19.41446972846485 14.032216045742958 -48.37760118187947
rradius 71.74085734232771
rwrist 26.665810502836063
rhand -34.61703717175483 -56.2600513693352
rfingers 7.125020000000028
rthumb -7.7590159449036 -86.19115595088232
lclavicle 1.25045832746998E-15 -1.8952695092515116E-15
lhumerus 20.742222912660758 -12.30788276111936 44.86761980083915
lradius 69.75483352383836
lwrist -22.665691665316718
lhand -44.48970406203673 -69.2582543965039
lfingers 7.12502000000002
lthumb -17.316811952934497 -39.981910508399665
rfemur -24.645085253639703 -2.0970609612332907 17.181894017959564
rtibia 53.836701402874574
rfoot -29.095665888376672 -17.029513001108597
rtoes -18.318178873287945
lfemur -26.24541781139998 2.5193159617816767 -18.018316835939327
ltibia 54.20001280541748
lfoot -31.06333023466062 -3.4475154419854386
ltoes -20.15554663201999
41
root 0 0 0 1.1052262602088239 -3.705158082185057 1.8136522440883325
lowerback 11.910290788182813 0.8625356556000177 -0.02869857271825116
upperback -4.225358791252114 1.0970480820138393 -0.5454222933608885
thorax -11.288774033642603 0.501054210510663 -0.8073265679925365
lowerneck -5.816343765982975 1.4752512687235648 4.567857385518714
upperneck 18.088017240915928 2.9311750366800613 -8.33233535027887
head 6.613572082076751 1.0654131146553922 -3.222511346582179
rclavicle 1.4557055709981634E-15 -1.2112677510464925E-15
rhumerus 19.41493245931532 14.032672269201333 -48.37721710578763
rradius 71.74106739001301
rwrist 26.66573975356848
rhand -34.61616367369622 -56.2588837948629
rfingers 7.125020000000028
rthumb -7.758182916985751 -86.19003154687178
lclavicle 1.2491612038277465E-15 -1.892542419289925E-15
lhumerus 20.74235589342154 -12.308169366515083 44.86732267519275
lradius 69.7549856859432
lwrist -22.665766530195803
lhand -44.4895025729754 -69.25687359657714
lfingers 7.12502000000002
lthumb -17.316611338852265 -39.98046534195598
rfemur -24.645069235239 -2.09704653865964 17.181902629410676
rtibia 53.83666572281503
rfoot -29.095737351402903 -17.029466745919123
rtoes -18.318197375440157
lfemur -26.245171238319685 2.5194194203487896 -18.018308559095892
ltibia 54.199985713044676
lfoot -31.063331130668114 -3.447397021742975
ltoes -20.156290248885817
42
root 0 0 0 1.1050729464786677 -3.7052674089913875 1.813666247630622
lowerback 11.910292646884798 0.8625170236512036 -0.02867134690319026
upperback -4.225273687352058 1.097032107731326 -0.545397393228416
thorax -11.288679343915993 0.5010451288354594 -0.807308947138415
lowerneck -5.815826632967635 1.4751670569715478 4.567954335268388
upperneck 18.087720452969712 2.931078465730267 -8.332601849583705
head 6.61339003117612 1.0653693082382667 -3.22262213985101
rclavicle 1.457658385696218E-15 -1.2114632133482726E-15
rhumerus 19.415296453952166 14.033066462398276 -48.37712965375682
rradius 71.74127671883188
rwrist 26.66560894648636
rhand -34.615681004535915 -56.25822777420127
rfingers 7.125020000000028
rthumb -7.757713803007051 -86.18938775808249
lclavicle 1.2507974471008508E-15 -1.8929273209253996E-15
lhumerus 20.742390466652573 -12.308385737151223 44.867100756809215
lradius 69.75506216074005
lwrist -22.665794136590076
lhand -44.489329459522146 -69.2559067595718
lfingers 7.12502000000002
lthumb -17.316443995647077 -39.97952777032641
rfemur -24.645072926167124 -2.097045855178217 17.181909505265086
rtibia 53.836685260572075
rfoot -29.095774191747847 -17.029456081814295
rtoes -18.31821036474035
lfemur -26.24505927405581 2.51947973468691 -18.01830693804819
ltibia 54.19998117137178
lfoot -31.063297975814884 -3.447340297315869
ltoes -20.15666832228705
43
root 0 0 0 1.1058266799151233 -3.704716955961589 1.8135926789514065
lowerback 11.91028112829805 0.862606873572965 -0.028791445151170936
upperback -4.225670394889999 1.0971114450628328 -0.5455160512732942
thorax -11.28911826460585 0.5010893390859199 -0.8073977735406906
lowerneck -5.818266739300137 1.475536353973294 4.567488267142068
upperneck 18.089074654461456 2.9314918428637933 -8.331329410650572
head 6.61423401078725 1.0655576457919271 -3.2220979869995237
rclavicle 1.4622097820039366E-15 -1.2193755054066692E-15
rhumerus 19.413722401510356 14.031974428280611 -48.379895552182184
rradius 71.74076984873162
rwrist 26.664413709885224
rhand -34.62010755954851 -56.26311287320779
rfingers 7.125020000000028
rthumb -7.761944820412181 -86.1942102274252
lclavicle 1.2741259266406851E-15 -1.9045533789455946E-15
lhumerus 20.741410703852765 -12.307129292828769 44.867392570687485
lradius 69.75437146903191
lwrist -22.665708067222
lhand -44.48923783249024 -69.25891396628147
lfingers 7.12502000000002
lthumb -17.31641703344134 -39.983042635163116
rfemur -24.644712166946338 -2.097330611182176 17.182579916232577
rtibia 53.83764067209906
rfoot -29.09692939677929 -17.030533410257895
rtoes -18.31857714555244
lfemur -26.247544716552348 2.518639093494341 -18.018583673534557
ltibia 54.20103825617259
lfoot -31.06464481522151 -3.449117904818487
ltoes -20.15120034874299
44
root 0 0 0 1.105529541991472 -3.704942050228622 1.8136243137341959
lowerback 11.910288495486459 0.8625723014185538 -0.02875026051851437
upperback -4.225523187120934 1.0970798834474025 -0.5454706963634566
thorax -11.288957555717749 0.5010721670472956 -0.8073615725557008
lowerneck -5.817351550009988 1.4754120094642016 4.567667889459382
upperneck 18.088587927911806 2.9313582645284337 -8.331816410945612
head 6.613924365741573 1.0654962831999537 -3.2222960468227444
rclavicle 1.448365299826667E-15 -1.210875891060923E-15
rhumerus 19.41410084730854 14.031725609351565 -48.37728966048111
rradius 71.74061808617031
rwrist 26.666114399503627
rhand -34.6172853278891 -56.26048582515681
rfingers 7.125020000000028
rthumb -7.759268523722309 -86.1916631309812
lclavicle 1.2432723097670468E-15 -1.8916785587905033E-15
lhumerus 20.742254782720316 -12.307613539047 44.86791041388546
lradius 69.75479486157627
lwrist -22.665683043163554
lhand -44.489948782015006 -69.25926979422599
lfingers 7.12502000000002
lthumb -17.317038232795465 -39.98273755191164
rfemur -24.645065946684625 -2.0970897996976223 17.18189056895481
rtibia 53.83671794119198
rfoot -29.095735040707222 -17.029555014905764
rtoes -18.318185329879626
lfemur -26.2454967167351 2.51926567425223 -18.01832201305553
ltibia 54.200114246474065
lfoot -31.063492004637137 -3.447519538239972
ltoes -20.15522050077582
